<?xml version="1.0" encoding="UTF-8"?>
<!DOCTYPE svg PUBLIC "-//W3C//DTD SVG 1.1//EN" "http://www.w3.org/Graphics/SVG/1.1/DTD/svg11.dtd">
<svg xmlns="http://www.w3.org/2000/svg" version="1.1" width="1183px" height="1183px" style="shape-rendering:geometricPrecision; text-rendering:geometricPrecision; image-rendering:optimizeQuality; fill-rule:evenodd; clip-rule:evenodd" xmlns:xlink="http://www.w3.org/1999/xlink">
<g><path style="opacity:0.314" fill="#000000" d="M 1182.5,84.5 C 1182.5,183.5 1182.5,282.5 1182.5,381.5C 1154.63,487.996 1125.96,594.329 1096.5,700.5C 1089.3,722.093 1076.96,739.926 1059.5,754C 1004.59,796.565 949.922,839.565 895.5,883C 887.514,888.493 878.847,892.659 869.5,895.5C 919.646,855.53 969.98,815.697 1020.5,776C 1027.49,771.346 1032.66,765.179 1036,757.5C 1080.82,590.539 1125.49,423.539 1170,256.5C 1171.51,234.358 1161.68,220.191 1140.5,214C 1088.5,213.333 1036.5,213.333 984.5,214C 980.958,215.02 977.458,216.187 974,217.5C 970.859,216.257 967.692,215.09 964.5,214C 818.5,213.333 672.5,213.333 526.5,214C 512.105,218.061 502.605,227.228 498,241.5C 469.178,348.456 440.511,455.456 412,562.5C 389.883,563.828 367.549,564.495 345,564.5C 322.833,564.167 300.667,563.833 278.5,563.5C 306.599,461.777 334.099,359.777 361,257.5C 362.907,235.47 353.407,220.97 332.5,214C 280.167,213.333 227.833,213.333 175.5,214C 161.503,217.997 152.003,226.831 147,240.5C 101.949,407.54 57.4485,574.707 13.5,742C 14.0106,748.058 15.3439,753.891 17.5,759.5C 11.5468,757.508 5.54682,755.508 -0.5,753.5C -0.5,657.5 -0.5,561.5 -0.5,465.5C 28.0066,358.145 56.8399,250.812 86,143.5C 92.0216,122.192 103.522,104.692 120.5,91C 136.769,82.2651 154.102,76.9318 172.5,75C 226.5,71.6747 280.5,71.6747 334.5,75C 356.852,76.414 376.852,83.914 394.5,97.5C 408.22,110.606 416.387,126.606 419,145.5C 419.748,159.448 421.748,173.115 425,186.5C 430.328,165.865 436.662,145.531 444,125.5C 452.056,107.444 464.89,93.944 482.5,85C 508.631,75.8563 535.631,71.8563 563.5,73C 743.837,72.6388 924.17,72.6388 1104.5,73C 1131.38,71.9398 1157.38,75.7731 1182.5,84.5 Z"/></g>
<g><path style="opacity:0.997" fill="#fefefe" d="M 869.5,895.5 C 859.993,902.835 850.326,910.002 840.5,917C 818.098,925.573 800.765,919.74 788.5,899.5C 784.619,891.492 783.785,883.159 786,874.5C 794.308,843.249 802.808,812.082 811.5,781C 783.502,780.5 755.502,780.333 727.5,780.5C 617.499,780.667 507.499,780.5 397.5,780C 385.295,777.926 375.962,771.759 369.5,761.5C 365.811,753.169 364.311,744.502 365,735.5C 359.31,743.554 354.144,751.887 349.5,760.5C 342.582,771.559 332.582,778.059 319.5,780C 228.167,780.667 136.833,780.667 45.5,780C 32.682,777.773 23.3487,770.939 17.5,759.5C 15.3439,753.891 14.0106,748.058 13.5,742C 57.4485,574.707 101.949,407.54 147,240.5C 152.003,226.831 161.503,217.997 175.5,214C 227.833,213.333 280.167,213.333 332.5,214C 353.407,220.97 362.907,235.47 361,257.5C 334.099,359.777 306.599,461.777 278.5,563.5C 300.667,563.833 322.833,564.167 345,564.5C 367.549,564.495 389.883,563.828 412,562.5C 440.511,455.456 469.178,348.456 498,241.5C 502.605,227.228 512.105,218.061 526.5,214C 672.5,213.333 818.5,213.333 964.5,214C 967.692,215.09 970.859,216.257 974,217.5C 977.458,216.187 980.958,215.02 984.5,214C 1036.5,213.333 1088.5,213.333 1140.5,214C 1161.68,220.191 1171.51,234.358 1170,256.5C 1125.49,423.539 1080.82,590.539 1036,757.5C 1032.66,765.179 1027.49,771.346 1020.5,776C 969.98,815.697 919.646,855.53 869.5,895.5 Z"/></g>
<g><path style="opacity:1" fill="#5400fe" d="M 949.5,273.5 C 809.5,273.5 669.5,273.5 529.5,273.5C 529.5,272.5 529.5,271.5 529.5,270.5C 530.659,263.858 532.326,257.358 534.5,251C 674.833,250.5 815.166,250.333 955.5,250.5C 954.258,258.473 952.258,266.14 949.5,273.5 Z"/></g>
<g><path style="opacity:1" fill="#5801fd" d="M 311.5,295.5 C 264.833,295.5 218.167,295.5 171.5,295.5C 175.324,280.535 178.991,265.535 182.5,250.5C 229.5,250.5 276.5,250.5 323.5,250.5C 319.9,265.628 315.9,280.628 311.5,295.5 Z"/></g>
<g><path style="opacity:1" fill="#5a00fd" d="M 529.5,270.5 C 529.5,271.5 529.5,272.5 529.5,273.5C 669.5,273.5 809.5,273.5 949.5,273.5C 948.102,281.101 946.102,288.434 943.5,295.5C 803.5,295.5 663.5,295.5 523.5,295.5C 523.5,294.5 523.5,293.5 523.5,292.5C 524.898,284.899 526.898,277.566 529.5,270.5 Z"/></g>
<g><path style="opacity:1" fill="#5801fd" d="M 1120.5,295.5 C 1073.83,295.5 1027.17,295.5 980.5,295.5C 984.01,280.458 987.677,265.458 991.5,250.5C 1038.5,250.5 1085.5,250.5 1132.5,250.5C 1128.65,265.559 1124.65,280.559 1120.5,295.5 Z"/></g>
<g><path style="opacity:1" fill="#6000fb" d="M 523.5,292.5 C 523.5,293.5 523.5,294.5 523.5,295.5C 663.5,295.5 803.5,295.5 943.5,295.5C 941.836,302.827 940.169,310.161 938.5,317.5C 797.829,318.165 657.496,317.498 517.5,315.5C 518.742,307.527 520.742,299.86 523.5,292.5 Z"/></g>
<g><path style="opacity:1" fill="#6501fb" d="M 980.5,295.5 C 1027.17,295.5 1073.83,295.5 1120.5,295.5C 1116.47,311.604 1112.14,327.604 1107.5,343.5C 1061.17,343.5 1014.83,343.5 968.5,343.5C 968.5,342.5 968.5,341.5 968.5,340.5C 971.742,325.191 975.742,310.191 980.5,295.5 Z"/></g>
<g><path style="opacity:1" fill="#6501fb" d="M 171.5,295.5 C 218.167,295.5 264.833,295.5 311.5,295.5C 307.456,311.686 303.122,327.686 298.5,343.5C 252.167,343.5 205.833,343.5 159.5,343.5C 159.5,342.5 159.5,341.5 159.5,340.5C 163.054,325.278 167.054,310.278 171.5,295.5 Z"/></g>
<g><path style="opacity:1" fill="#6700fa" d="M 517.5,315.5 C 657.496,317.498 797.829,318.165 938.5,317.5C 935.859,326.064 933.525,334.731 931.5,343.5C 790.829,344.165 650.496,343.498 510.5,341.5C 512.231,332.567 514.565,323.9 517.5,315.5 Z"/></g>
<g><path style="opacity:1" fill="#6d00f9" d="M 510.5,341.5 C 650.496,343.498 790.829,344.165 931.5,343.5C 929.345,350.455 927.345,357.455 925.5,364.5C 784.999,364.833 644.666,364.5 504.5,363.5C 505.898,355.899 507.898,348.566 510.5,341.5 Z"/></g>
<g><path style="opacity:1" fill="#7201f8" d="M 159.5,340.5 C 159.5,341.5 159.5,342.5 159.5,343.5C 205.833,343.5 252.167,343.5 298.5,343.5C 294.99,357.875 291.323,372.209 287.5,386.5C 240.664,386.832 193.997,386.499 147.5,385.5C 150.742,370.191 154.742,355.191 159.5,340.5 Z"/></g>
<g><path style="opacity:1" fill="#7503f8" d="M 504.5,363.5 C 644.666,364.5 784.999,364.833 925.5,364.5C 923.481,373.241 921.148,381.908 918.5,390.5C 824.835,391.333 731.168,391.833 637.5,392C 635.91,397.529 634.243,403.029 632.5,408.5C 585.833,408.5 539.167,408.5 492.5,408.5C 496.054,393.278 500.054,378.278 504.5,363.5 Z"/></g>
<g><path style="opacity:1" fill="#7101f8" d="M 968.5,340.5 C 968.5,341.5 968.5,342.5 968.5,343.5C 1014.83,343.5 1061.17,343.5 1107.5,343.5C 1103.99,357.876 1100.32,372.209 1096.5,386.5C 1049.49,387.162 1002.82,386.495 956.5,384.5C 959.899,369.56 963.899,354.893 968.5,340.5 Z"/></g>
<g><path style="opacity:1" fill="#7e01f6" d="M 147.5,385.5 C 193.997,386.499 240.664,386.832 287.5,386.5C 283.17,402.484 278.837,418.484 274.5,434.5C 227.664,434.832 180.997,434.499 134.5,433.5C 138.233,417.227 142.566,401.227 147.5,385.5 Z"/></g>
<g><path style="opacity:1" fill="#7e01f6" d="M 956.5,384.5 C 1002.82,386.495 1049.49,387.162 1096.5,386.5C 1091.86,402.396 1087.53,418.396 1083.5,434.5C 1036.66,434.832 989.997,434.499 943.5,433.5C 947.387,416.945 951.721,400.612 956.5,384.5 Z"/></g>
<g><path style="opacity:1" fill="#debefc" d="M 628.5,425.5 C 722.169,425.167 815.836,425.5 909.5,426.5C 909.376,427.107 909.043,427.44 908.5,427.5C 815.5,426.167 722.5,426.167 629.5,427.5C 628.833,427.5 628.167,427.5 627.5,427.5C 627.833,426.833 628.167,426.167 628.5,425.5 Z"/></g>
<g><path style="opacity:1" fill="#fefdfe" d="M 627.5,427.5 C 628.167,427.5 628.833,427.5 629.5,427.5C 646.194,436.845 662.861,446.179 679.5,455.5C 702.833,469.5 726.167,483.5 749.5,497.5C 744.721,513.612 740.387,529.945 736.5,546.5C 732.389,559.938 728.722,573.605 725.5,587.5C 724.034,591.674 722.7,596.008 721.5,600.5C 674.838,601.5 628.171,601.833 581.5,601.5C 582.167,597.833 582.833,594.167 583.5,590.5C 587.789,576.019 591.789,561.352 595.5,546.5C 599.678,530.789 604.011,515.122 608.5,499.5C 612.48,484.911 616.147,470.245 619.5,455.5C 622.456,446.356 625.123,437.022 627.5,427.5 Z"/></g>
<g><path style="opacity:1" fill="#8401f4" d="M 492.5,408.5 C 539.167,408.5 585.833,408.5 632.5,408.5C 631.01,414.126 629.677,419.792 628.5,425.5C 628.167,426.167 627.833,426.833 627.5,427.5C 625.123,437.022 622.456,446.356 619.5,455.5C 572.821,456.162 526.488,455.495 480.5,453.5C 483.742,438.191 487.742,423.191 492.5,408.5 Z"/></g>
<g><path style="opacity:1" fill="#8500f4" d="M 629.5,427.5 C 722.5,426.167 815.5,426.167 908.5,427.5C 906.167,436.833 903.833,446.167 901.5,455.5C 827.5,455.5 753.5,455.5 679.5,455.5C 662.861,446.179 646.194,436.845 629.5,427.5 Z"/></g>
<g><path style="opacity:1" fill="#8b01f3" d="M 134.5,433.5 C 180.997,434.499 227.664,434.832 274.5,434.5C 270.869,449.044 266.869,463.377 262.5,477.5C 216.167,477.5 169.833,477.5 123.5,477.5C 123.5,476.5 123.5,475.5 123.5,474.5C 126.722,460.605 130.389,446.938 134.5,433.5 Z"/></g>
<g><path style="opacity:1" fill="#8e01f3" d="M 679.5,455.5 C 753.5,455.5 827.5,455.5 901.5,455.5C 897.192,470.063 893.192,484.729 889.5,499.5C 842.488,500.162 795.821,499.495 749.5,497.5C 726.167,483.5 702.833,469.5 679.5,455.5 Z"/></g>
<g><path style="opacity:1" fill="#8b01f3" d="M 943.5,433.5 C 989.997,434.499 1036.66,434.832 1083.5,434.5C 1079.63,448.977 1075.63,463.31 1071.5,477.5C 1025.17,477.5 978.833,477.5 932.5,477.5C 932.5,476.5 932.5,475.5 932.5,474.5C 935.592,460.575 939.259,446.909 943.5,433.5 Z"/></g>
<g><path style="opacity:1" fill="#9001f2" d="M 480.5,453.5 C 526.488,455.495 572.821,456.162 619.5,455.5C 616.147,470.245 612.48,484.911 608.5,499.5C 561.664,499.832 514.997,499.499 468.5,498.5C 471.742,483.191 475.742,468.191 480.5,453.5 Z"/></g>
<g><path style="opacity:0.768" fill="#010101" d="M 651.5,483.5 C 669.139,493.655 686.806,503.822 704.5,514C 705.022,514.561 705.355,515.228 705.5,516C 701.607,531.974 697.273,547.807 692.5,563.5C 671.844,564.5 651.177,564.833 630.5,564.5C 636.72,537.285 643.72,510.285 651.5,483.5 Z"/></g>
<g><path style="opacity:1" fill="#9701f1" d="M 123.5,474.5 C 123.5,475.5 123.5,476.5 123.5,477.5C 169.833,477.5 216.167,477.5 262.5,477.5C 258.502,493.494 254.502,509.494 250.5,525.5C 203.488,526.162 156.821,525.495 110.5,523.5C 114.387,506.945 118.721,490.612 123.5,474.5 Z"/></g>
<g><path style="opacity:1" fill="#9701f1" d="M 932.5,474.5 C 932.5,475.5 932.5,476.5 932.5,477.5C 978.833,477.5 1025.17,477.5 1071.5,477.5C 1067.77,493.773 1063.43,509.773 1058.5,525.5C 1011.82,526.162 965.488,525.495 919.5,523.5C 923.076,506.858 927.409,490.525 932.5,474.5 Z"/></g>
<g><path style="opacity:1" fill="#9d01f0" d="M 468.5,498.5 C 514.997,499.499 561.664,499.832 608.5,499.5C 604.011,515.122 599.678,530.789 595.5,546.5C 548.833,546.5 502.167,546.5 455.5,546.5C 459.231,530.233 463.565,514.233 468.5,498.5 Z"/></g>
<g><path style="opacity:1" fill="#9d01f0" d="M 749.5,497.5 C 795.821,499.495 842.488,500.162 889.5,499.5C 885.319,515.227 880.985,530.894 876.5,546.5C 829.833,546.5 783.167,546.5 736.5,546.5C 740.387,529.945 744.721,513.612 749.5,497.5 Z"/></g>
<g><path style="opacity:1" fill="#a301ee" d="M 110.5,523.5 C 156.821,525.495 203.488,526.162 250.5,525.5C 246.344,539.789 242.344,554.122 238.5,568.5C 191.833,568.5 145.167,568.5 98.5,568.5C 101.742,553.191 105.742,538.191 110.5,523.5 Z"/></g>
<g><path style="opacity:1" fill="#a301ee" d="M 919.5,523.5 C 965.488,525.495 1011.82,526.162 1058.5,525.5C 1055.3,539.954 1051.64,554.288 1047.5,568.5C 1000.66,568.832 953.997,568.499 907.5,567.5C 910.898,552.566 914.898,537.899 919.5,523.5 Z"/></g>
<g><path style="opacity:1" fill="#a901ed" d="M 455.5,546.5 C 502.167,546.5 548.833,546.5 595.5,546.5C 591.789,561.352 587.789,576.019 583.5,590.5C 537.167,590.5 490.833,590.5 444.5,590.5C 444.5,589.5 444.5,588.5 444.5,587.5C 447.592,573.575 451.259,559.909 455.5,546.5 Z"/></g>
<g><path style="opacity:1" fill="#a901ed" d="M 736.5,546.5 C 783.167,546.5 829.833,546.5 876.5,546.5C 873.101,561.44 869.101,576.107 864.5,590.5C 818.167,590.5 771.833,590.5 725.5,590.5C 725.5,589.5 725.5,588.5 725.5,587.5C 728.722,573.605 732.389,559.938 736.5,546.5 Z"/></g>
<g><path style="opacity:1" fill="#b101ec" d="M 98.5,568.5 C 145.167,568.5 191.833,568.5 238.5,568.5C 235.629,579.112 232.963,589.779 230.5,600.5C 229.957,600.56 229.624,600.893 229.5,601.5C 287.83,602.5 346.163,602.833 404.5,602.5C 402.281,607.709 399.281,612.376 395.5,616.5C 292.167,616.5 188.833,616.5 85.5,616.5C 89.2328,600.227 93.5661,584.227 98.5,568.5 Z"/></g>
<g><path style="opacity:1" fill="#b307ec" d="M 444.5,587.5 C 444.5,588.5 444.5,589.5 444.5,590.5C 490.833,590.5 537.167,590.5 583.5,590.5C 582.833,594.167 582.167,597.833 581.5,601.5C 628.171,601.833 674.838,601.5 721.5,600.5C 722.7,596.008 724.034,591.674 725.5,587.5C 725.5,588.5 725.5,589.5 725.5,590.5C 771.833,590.5 818.167,590.5 864.5,590.5C 862.769,599.433 860.435,608.1 857.5,616.5C 717.5,616.5 577.5,616.5 437.5,616.5C 437.5,615.5 437.5,614.5 437.5,613.5C 439.231,604.567 441.565,595.9 444.5,587.5 Z"/></g>
<g><path style="opacity:1" fill="#b001ec" d="M 907.5,567.5 C 953.997,568.499 1000.66,568.832 1047.5,568.5C 1043.47,584.604 1039.14,600.604 1034.5,616.5C 987.833,616.5 941.167,616.5 894.5,616.5C 898.387,599.945 902.721,583.612 907.5,567.5 Z"/></g>
<g><path style="opacity:1" fill="#d77ef5" d="M 230.5,600.5 C 289.069,601.163 347.069,601.829 404.5,602.5C 346.163,602.833 287.83,602.5 229.5,601.5C 229.624,600.893 229.957,600.56 230.5,600.5 Z"/></g>
<g><path style="opacity:1" fill="#b801ea" d="M 85.5,616.5 C 188.833,616.5 292.167,616.5 395.5,616.5C 391.555,623.77 387.222,630.77 382.5,637.5C 281.494,638.164 180.828,637.498 80.5,635.5C 81.5925,628.91 83.2591,622.577 85.5,616.5 Z"/></g>
<g><path style="opacity:1" fill="#b800ea" d="M 437.5,613.5 C 437.5,614.5 437.5,615.5 437.5,616.5C 577.5,616.5 717.5,616.5 857.5,616.5C 856.304,623.617 854.637,630.617 852.5,637.5C 711.999,637.833 571.666,637.5 431.5,636.5C 432.742,628.527 434.742,620.86 437.5,613.5 Z"/></g>
<g><path style="opacity:1" fill="#be01e9" d="M 80.5,635.5 C 180.828,637.498 281.494,638.164 382.5,637.5C 377.833,644.833 373.167,652.167 368.5,659.5C 270.161,660.164 172.161,659.498 74.5,657.5C 75.8994,649.893 77.8994,642.56 80.5,635.5 Z"/></g>
<g><path style="opacity:1" fill="#be00e9" d="M 431.5,636.5 C 571.666,637.5 711.999,637.833 852.5,637.5C 850.496,644.85 848.496,652.183 846.5,659.5C 705.999,659.833 565.666,659.5 425.5,658.5C 426.898,650.899 428.898,643.566 431.5,636.5 Z"/></g>
<g><path style="opacity:1" fill="#bc02ea" d="M 894.5,616.5 C 941.167,616.5 987.833,616.5 1034.5,616.5C 1030.68,630.791 1027.01,645.124 1023.5,659.5C 976.488,660.162 929.821,659.495 883.5,657.5C 886.409,643.524 890.076,629.857 894.5,616.5 Z"/></g>
<g><path style="opacity:1" fill="#c501e8" d="M 74.5,657.5 C 172.161,659.498 270.161,660.164 368.5,659.5C 362.5,668.833 356.5,678.167 350.5,687.5C 255.833,687.5 161.167,687.5 66.5,687.5C 68.5924,677.242 71.2591,667.242 74.5,657.5 Z"/></g>
<g><path style="opacity:1" fill="#c500e8" d="M 425.5,658.5 C 565.666,659.5 705.999,659.833 846.5,659.5C 844.405,669.104 841.739,678.437 838.5,687.5C 698.5,687.5 558.5,687.5 418.5,687.5C 418.5,686.5 418.5,685.5 418.5,684.5C 420.231,675.567 422.565,666.9 425.5,658.5 Z"/></g>
<g><path style="opacity:1" fill="#cb01e6" d="M 66.5,687.5 C 161.167,687.5 255.833,687.5 350.5,687.5C 346.153,694.203 341.82,700.87 337.5,707.5C 245.332,707.833 153.332,707.499 61.5,706.5C 62.5925,699.91 64.2591,693.577 66.5,687.5 Z"/></g>
<g><path style="opacity:1" fill="#cb00e6" d="M 418.5,684.5 C 418.5,685.5 418.5,686.5 418.5,687.5C 558.5,687.5 698.5,687.5 838.5,687.5C 837.455,694.345 835.789,701.011 833.5,707.5C 693.167,707.5 552.833,707.5 412.5,707.5C 413.742,699.527 415.742,691.86 418.5,684.5 Z"/></g>
<g><path style="opacity:1" fill="#c902e7" d="M 883.5,657.5 C 929.821,659.495 976.488,660.162 1023.5,659.5C 1018.86,675.396 1014.53,691.396 1010.5,707.5C 963.664,707.832 916.997,707.499 870.5,706.5C 874.076,689.858 878.409,673.525 883.5,657.5 Z"/></g>
<g><path style="opacity:1" fill="#d201e5" d="M 61.5,706.5 C 153.332,707.499 245.332,707.833 337.5,707.5C 330.39,719.116 323.057,730.616 315.5,742C 227.501,742.5 139.501,742.667 51.5,742.5C 54.5439,730.313 57.8773,718.313 61.5,706.5 Z"/></g>
<g><path style="opacity:1" fill="#d100e5" d="M 412.5,707.5 C 552.833,707.5 693.167,707.5 833.5,707.5C 831.677,714.459 830.01,721.459 828.5,728.5C 688.167,728.5 547.833,728.5 407.5,728.5C 407.5,727.5 407.5,726.5 407.5,725.5C 408.565,719.231 410.231,713.231 412.5,707.5 Z"/></g>
<g><path style="opacity:1" fill="#d600e5" d="M 407.5,725.5 C 407.5,726.5 407.5,727.5 407.5,728.5C 547.833,728.5 688.167,728.5 828.5,728.5C 827.017,732.758 825.684,737.091 824.5,741.5C 683.833,742.833 543.167,742.833 402.5,741.5C 404.188,736.054 405.855,730.721 407.5,725.5 Z"/></g>
<g><path style="opacity:1" fill="#d502e5" d="M 870.5,706.5 C 916.997,707.499 963.664,707.832 1010.5,707.5C 1007.19,719.088 1004.02,730.755 1001,742.5C 997.624,745.383 994.124,748.049 990.5,750.5C 946.833,750.5 903.167,750.5 859.5,750.5C 859.5,749.167 859.5,747.833 859.5,746.5C 862.566,732.892 866.233,719.559 870.5,706.5 Z"/></g>
<g><path style="opacity:0.009" fill="#000000" d="M 369.5,761.5 C 362.922,760.54 356.255,760.207 349.5,760.5C 354.144,751.887 359.31,743.554 365,735.5C 364.311,744.502 365.811,753.169 369.5,761.5 Z"/></g>
<g><path style="opacity:1" fill="#dd04e3" d="M 859.5,746.5 C 859.5,747.833 859.5,749.167 859.5,750.5C 903.167,750.5 946.833,750.5 990.5,750.5C 981.478,758.184 972.145,765.517 962.5,772.5C 926.167,772.5 889.833,772.5 853.5,772.5C 853.5,771.5 853.5,770.5 853.5,769.5C 855.054,761.613 857.054,753.946 859.5,746.5 Z"/></g>
<g><path style="opacity:1" fill="#e505e2" d="M 853.5,769.5 C 853.5,770.5 853.5,771.5 853.5,772.5C 889.833,772.5 926.167,772.5 962.5,772.5C 943.479,788.183 924.146,803.517 904.5,818.5C 882.993,818.831 861.66,818.497 840.5,817.5C 844.233,801.227 848.566,785.227 853.5,769.5 Z"/></g>
<g><path style="opacity:0.117" fill="#000000" d="M 727.5,780.5 C 755.502,780.333 783.502,780.5 811.5,781C 802.808,812.082 794.308,843.249 786,874.5C 783.785,883.159 784.619,891.492 788.5,899.5C 755.003,891.5 734.836,870.5 728,836.5C 725.124,817.79 724.957,799.123 727.5,780.5 Z"/></g>
<g><path style="opacity:1" fill="#f20ddf" d="M 840.5,817.5 C 861.66,818.497 882.993,818.831 904.5,818.5C 877.543,839.779 850.543,861.112 823.5,882.5C 828.337,860.827 834.004,839.16 840.5,817.5 Z"/></g>
</svg>
