<?xml version="1.0" encoding="UTF-8"?>
<svg version="1.1" xmlns="http://www.w3.org/2000/svg" width="400" height="400">
<path d="M0 0 C1.3990004 0.002062 1.3990004 0.002062 2.82626343 0.00416565 C4.78793872 0.01318883 6.74959533 0.03671556 8.7109375 0.07397461 C11.70910914 0.12887277 14.70450218 0.13550227 17.703125 0.13476562 C19.61460729 0.14950968 21.52607083 0.16699403 23.4375 0.1875 C24.3303067 0.19083847 25.2231134 0.19417694 26.14297485 0.19761658 C32.17216321 0.33533364 35.70834136 1.31381011 40.0859375 5.69140625 C42.57693237 13.48580956 40.73669023 20.9316811 38.80690002 28.60842896 C37.48359932 33.88616141 36.38152761 39.1752259 35.3671875 44.51953125 C33.04709504 56.39748181 30.14530142 68.1269269 27.2572937 79.87713623 C22.45422679 99.43526415 17.75221199 119.00189443 13.65917969 138.72241211 C11.41279497 149.48026102 8.75963399 159.99662031 6.0859375 170.69140625 C28.8559375 170.69140625 51.6259375 170.69140625 75.0859375 170.69140625 C75.4159375 167.72140625 75.7459375 164.75140625 76.0859375 161.69140625 C76.64716147 159.0644565 77.23810126 156.4791152 77.8984375 153.87890625 C79.17537893 148.70641585 80.34053263 143.53264505 81.33099365 138.29774475 C83.85283627 125.01700551 87.1119876 111.91773816 90.34210205 98.79559326 C92.03301705 91.92425776 93.70752254 85.04893266 95.375 78.171875 C95.53897152 77.49566856 95.70294304 76.81946213 95.87188339 76.12276459 C98.65230406 64.63858062 101.26476877 53.12620337 103.7109375 41.56640625 C104.0227647 40.10290664 104.33477147 38.63944527 104.64697266 37.17602539 C105.7007764 32.22813536 106.75194865 27.27969853 107.79296875 22.32910156 C108.40870994 19.44393997 109.05360015 16.56732401 109.7109375 13.69140625 C109.86900879 12.91909668 110.02708008 12.14678711 110.18994141 11.35107422 C111.2276284 6.97731009 112.7806631 4.50058476 116.31179416 1.7207365 C119.39335338 -0.06713602 122.57099223 0.01008653 126.0249176 0.06994629 C126.80647482 0.06355747 127.58803204 0.05716865 128.39327282 0.05058622 C131.00302418 0.03536794 133.61124962 0.05577527 136.22094727 0.07617188 C138.09547427 0.07266974 139.96999829 0.06701013 141.84451294 0.05935669 C146.92923954 0.04511332 152.01342508 0.06216539 157.09809995 0.08564186 C162.41955947 0.1057517 167.74099656 0.09987128 173.06248474 0.09753418 C181.99772057 0.09758775 190.93274488 0.11734213 199.86791992 0.14941406 C210.19948002 0.18631781 220.53076316 0.19508798 230.86238056 0.18811655 C240.80109814 0.18181268 250.73972071 0.19256299 260.67841911 0.21208191 C264.90837902 0.2202584 269.13829038 0.222965 273.36825752 0.22138977 C278.34811055 0.2205112 283.32770014 0.2347196 288.30748367 0.2606163 C290.13562811 0.26778167 291.96380056 0.26985995 293.79195595 0.26649857 C296.28623731 0.262787 298.77974846 0.27751958 301.27394104 0.29699707 C302.36071234 0.28900518 302.36071234 0.28900518 303.46943861 0.28085184 C309.031013 0.35585244 312.19489023 1.80035898 316.0859375 5.69140625 C318.40595188 11.72344363 317.05265115 18.85249951 315.72265625 24.94921875 C315.57502838 25.63405838 315.42740051 26.31889801 315.27529907 27.02449036 C314.78357602 29.2905117 314.27898338 31.55343174 313.7734375 33.81640625 C313.41865877 35.43167696 313.06409042 37.04699388 312.7097168 38.66235352 C309.34148156 53.91121261 305.70847003 69.0988262 302.03198242 84.27587891 C298.16706429 100.23401488 294.38547432 116.21130842 291.07202148 132.29443359 C287.82501294 148.01965834 283.99792985 163.59525848 280.13232422 179.17797852 C276.03133408 195.72875583 272.10649788 212.30257012 268.83300781 229.03857422 C267.37880092 236.14898062 265.65604122 243.19778008 263.9609375 250.25390625 C263.16187774 253.58572659 262.36375992 256.91777096 261.56640625 260.25 C261.26114769 261.52405701 261.26114769 261.52405701 260.94972229 262.82385254 C259.68067725 268.13947164 258.44782352 273.46214305 257.2434082 278.79277039 C256.4519948 282.29371975 255.65023217 285.79226597 254.84796143 289.29074097 C254.46696813 290.96562604 254.09105524 292.64167542 253.72039795 294.31887817 C253.20303504 296.65720044 252.66792188 298.99080784 252.12890625 301.32421875 C251.9812532 302.01415421 251.83360016 302.70408966 251.68147278 303.41493225 C250.69298903 307.59497291 249.47505962 310.01858012 246.0859375 312.69140625 C241.96298839 314.04113735 238.2455157 314.14515424 234.2109375 312.56640625 C230.02312834 308.87128052 228.24158057 303.89671031 226.1953125 298.80078125 C225.92955917 298.14270477 225.66380585 297.4846283 225.38999939 296.80661011 C224.53471772 294.68643262 223.68522833 292.56398972 222.8359375 290.44140625 C221.96042823 288.26512553 221.08365989 286.08935482 220.20683289 283.91360474 C219.6310544 282.48450995 219.05578385 281.05521042 218.48103333 279.6257019 C216.01269088 273.49081963 213.4923539 267.37805513 210.91503906 261.28808594 C209.0859375 256.90818038 209.0859375 256.90818038 209.0859375 254.69140625 C208.4259375 255.02140625 207.7659375 255.35140625 207.0859375 255.69140625 C205.27272828 255.789106 203.45589737 255.82210406 201.64006042 255.82511902 C200.48338364 255.829384 199.32670685 255.83364899 198.13497925 255.83804321 C196.85962311 255.83759003 195.58426697 255.83713684 194.27026367 255.83666992 C192.91849169 255.83966092 191.56672056 255.84306331 190.21495056 255.84684753 C186.53716007 255.85569924 182.85939282 255.85802618 179.1815927 255.85866332 C176.11258075 255.85961184 173.04357424 255.86328961 169.97456437 255.86683542 C162.73295874 255.87498493 155.49136555 255.87741925 148.24975586 255.87670898 C140.77895775 255.8761085 133.30823193 255.88665323 125.83745211 255.90245265 C119.42549366 255.9155298 113.01355881 255.92089279 106.60158712 255.92025357 C102.77119713 255.91999858 98.94087132 255.92285055 95.11049461 255.93343163 C91.50638551 255.9431152 87.90240187 255.94319004 84.29828835 255.93591499 C82.34667987 255.93437117 80.39507141 255.94271469 78.44348145 255.95135498 C77.27834518 255.94716049 76.11320892 255.942966 74.9127655 255.93864441 C73.90231265 255.93918918 72.8918598 255.93973394 71.85078716 255.94029522 C67.76124529 255.5721588 64.98109213 254.43736844 61.8359375 251.81640625 C58.59163308 247.87689374 58.9737404 243.91111591 59.0234375 238.94140625 C59.03246094 237.7709375 59.04148437 236.60046875 59.05078125 235.39453125 C59.06238281 234.5025 59.07398438 233.61046875 59.0859375 232.69140625 C58.46847656 233.52542969 57.85101563 234.35945312 57.21484375 235.21875 C42.85291728 254.39463433 42.85291728 254.39463433 36.0859375 255.69140625 C34.7367863 255.77986618 33.38404182 255.82183704 32.03199768 255.82511902 C31.23438019 255.829384 30.4367627 255.83364899 29.61497498 255.83804321 C28.74889114 255.83759003 27.88280731 255.83713684 26.99047852 255.83666992 C26.07133667 255.84002853 25.15219482 255.84338715 24.2052002 255.84684753 C21.1667343 255.85634675 18.12832357 255.85830005 15.08984375 255.859375 C12.97761512 255.862588 10.86538672 255.86595211 8.75315857 255.86946106 C4.32558679 255.87544954 -0.10196547 255.87730122 -4.52954102 255.87670898 C-10.20350175 255.87660731 -15.87733748 255.89026614 -21.55126858 255.90748119 C-25.91356481 255.91859746 -30.27583078 255.92062832 -34.63813972 255.92009926 C-36.73011773 255.92127968 -38.82209652 255.92570494 -40.91406059 255.93343163 C-43.8391993 255.94322501 -46.76406593 255.94035611 -49.68920898 255.93432617 C-50.98529839 255.94275543 -50.98529839 255.94275543 -52.30757141 255.95135498 C-57.88283629 255.92213922 -61.89105003 255.5245433 -66.1796875 251.63842773 C-75.05761861 236.55319315 -64.55223823 210.27484444 -60.51154327 194.47935104 C-59.49875863 190.49513179 -58.51608139 186.50352667 -57.53271484 182.51196289 C-57.13964531 180.91751949 -56.74654853 179.32308281 -56.35342407 177.72865295 C-56.16062489 176.94648973 -55.9678257 176.16432652 -55.76918411 175.35846138 C-55.19153402 173.02023527 -54.61058619 170.68285211 -54.02865601 168.34568787 C-51.32674694 157.48099498 -48.81224484 146.59200198 -46.5390625 135.62890625 C-43.28258737 120.04229174 -39.60436396 104.56671253 -35.85595703 89.09155273 C-31.87397134 72.64547799 -28.02917269 56.17134932 -24.54516602 39.61181641 C-23.57641883 35.00915907 -22.5772882 30.41317932 -21.58105469 25.81640625 C-20.99493168 23.07029552 -20.43809313 20.32040415 -19.890625 17.56640625 C-19.58730178 16.14944685 -19.28274819 14.73274987 -18.9765625 13.31640625 C-18.74066406 12.15367188 -18.50476562 10.9909375 -18.26171875 9.79296875 C-14.6476351 1.47533856 -8.4771048 -0.20560949 0 0 Z M154.0859375 83.69140625 C149.07139645 104.30674168 144.11291112 124.76243546 139.76660156 145.49755859 C137.97218117 153.91743217 136.01339844 162.30128214 134.0859375 170.69140625 C147.2859375 170.69140625 160.4859375 170.69140625 174.0859375 170.69140625 C176.41255342 163.88957627 176.41255342 163.88957627 178.28100586 157.03979492 C178.5616111 155.84630684 178.5616111 155.84630684 178.84788513 154.62870789 C179.03859085 153.79732803 179.22929657 152.96594818 179.42578125 152.109375 C179.63401016 151.21511307 179.84223907 150.32085114 180.05677795 149.39949036 C180.49492406 147.51330844 180.93096391 145.62663613 181.36499023 143.73950195 C182.01321144 140.92333294 182.66912388 138.10904289 183.32617188 135.29492188 C183.75585344 133.44155569 184.18489174 131.58804026 184.61328125 129.734375 C184.93104019 128.36537552 184.93104019 128.36537552 185.25521851 126.96871948 C186.31464657 122.33448387 187.28723304 117.70302654 188.11767578 113.02197266 C188.28264053 112.1131282 188.44760529 111.20428375 188.61756897 110.26789856 C188.92315906 108.55272964 189.21239814 106.83453259 189.48191833 105.11332703 C190.4194601 99.87684826 191.72613169 97.09510336 196.0859375 93.69140625 C199.27839397 92.6937636 201.36736061 92.56872239 204.6484375 93.12890625 C211.78302482 97.70235966 214.45526402 108.01453438 217.42529297 115.61791992 C218.20909885 117.62419993 219.00386983 119.62584725 219.80078125 121.62695312 C222.42727068 128.25420051 224.92267936 134.89579188 227.0859375 141.69140625 C229.57344788 139.20389587 229.69029433 137.67818514 230.3828125 134.25 C230.61661621 133.12005615 230.85041992 131.9901123 231.09130859 130.82592773 C231.33703613 129.60591064 231.58276367 128.38589355 231.8359375 127.12890625 C232.36187057 124.58667686 232.89057896 122.04502025 233.421875 119.50390625 C233.55699493 118.85679184 233.69211487 118.20967743 233.83132935 117.54295349 C235.46306292 109.79483648 237.34778022 102.10919356 239.25683594 94.42553711 C239.49692383 93.44979736 239.73701172 92.47405762 239.984375 91.46875 C240.19755371 90.61531006 240.41073242 89.76187012 240.63037109 88.88256836 C241.18771641 86.57487807 241.18771641 86.57487807 241.0859375 83.69140625 C212.3759375 83.69140625 183.6659375 83.69140625 154.0859375 83.69140625 Z " fill="#FEFBFC" transform="translate(72.9140625,61.30859375)"/>
<path d="M0 0 C45.21 0 90.42 0 137 0 C133.63411182 12.34159 133.63411182 12.34159 132.31640625 16.578125 C132.03047607 17.50431641 131.7445459 18.43050781 131.44995117 19.38476562 C131.15709229 20.33029297 130.8642334 21.27582031 130.5625 22.25 C128.15696509 30.07826718 125.87139618 37.91441119 123.82421875 45.84375 C122.93638427 49.24360907 121.9653347 52.62132857 121 56 C88.66 56 56.32 56 23 56 C22.67 58.97 22.34 61.94 22 65 C21.45907343 67.79555736 20.89038217 70.55849777 20.2578125 73.33203125 C20.08877411 74.08989426 19.91973572 74.84775726 19.74557495 75.62858582 C19.38975472 77.21977193 19.03166621 78.81045239 18.67138672 80.40063477 C18.12889294 82.79531575 17.59311022 85.19141776 17.05859375 87.58789062 C15.38690929 95.05436056 13.66481569 102.50224367 11.78173828 109.91870117 C10.29151749 115.79255395 8.85014502 121.67848357 7.41064453 127.56494141 C7.05168891 129.02923166 6.69099359 130.49309648 6.32861328 131.95654297 C5.79548334 134.11061786 5.26827258 136.26607016 4.7421875 138.421875 C4.4313623 139.68612305 4.12053711 140.95037109 3.80029297 142.25292969 C2.96244697 146.17582792 2.47162298 150.01893169 2 154 C1.34782121 156.24009236 0.55544331 158.35584739 -0.28125 160.53125 C-1.2697638 163.92658 -1.56137583 167.49100667 -2 171 C18.79 171 39.58 171 61 171 C61.66 166.38 62.32 161.76 63 157 C64.4375 152.625 64.4375 152.625 65.22485352 150.49023438 C66.22134042 147.28892211 66.76277249 144.08403991 67.33984375 140.78125 C68.91566426 132.05398709 70.98034528 123.47707912 73.125 114.875 C73.6669376 112.69078322 74.20753273 110.50625515 74.74557495 108.32107544 C75.22742251 106.36552358 75.71342537 104.41099693 76.19970703 102.45654297 C76.92753709 99.31297436 77.51047378 96.18833745 78 93 C78.66 93 79.32 93 80 93 C82.59856434 99.6567478 85.13226575 106.32009484 87.5 113.0625 C90.29376788 120.94057836 93.48122373 128.62270276 96.90625 136.24609375 C97.56273108 137.7472948 98.21898208 139.24859649 98.875 140.75 C99.35912354 141.79571167 99.35912354 141.79571167 99.85302734 142.86254883 C102.01645926 147.87313318 102.17479099 151.65911497 101 157 C100.80438477 157.96276855 100.60876953 158.92553711 100.40722656 159.91748047 C99.69980491 163.3070816 98.94949758 166.6847632 98.1875 170.0625 C97.91615234 171.27623291 97.64480469 172.48996582 97.36523438 173.74047852 C95.77056042 180.80429701 94.02094952 187.7801745 92.07421875 194.75390625 C90.07305029 202.32933827 88.60320095 210.04995987 87.01757812 217.72045898 C86.77072266 218.90325439 86.52386719 220.0860498 86.26953125 221.3046875 C86.04885986 222.37702637 85.82818848 223.44936523 85.60083008 224.55419922 C85 227 85 227 84 228 C82.2410657 228.09632045 80.47822841 228.1218751 78.71665955 228.12025452 C77.57095993 228.12162918 76.42526031 228.12300385 75.24484253 228.12442017 C73.34268478 228.11902725 73.34268478 228.11902725 71.40209961 228.11352539 C70.06206769 228.11324352 68.72203561 228.11340125 67.38200378 228.1139679 C63.73340562 228.11425587 60.08484005 228.1083592 56.43624949 228.10139394 C52.62722484 228.09516034 48.8181995 228.0945566 45.00917053 228.09336853 C37.79142246 228.09025523 30.57368946 228.08204186 23.35594803 228.07201904 C15.14084743 228.06085786 6.92574612 228.05534744 -1.28936017 228.05032361 C-18.19291551 228.03985925 -35.09645616 228.02225983 -52 228 C-51.69657663 225.9553467 -51.38995592 223.91116775 -51.08203125 221.8671875 C-50.9116333 220.72878418 -50.74123535 219.59038086 -50.56567383 218.41748047 C-49.86851539 214.20564458 -48.91850079 210.08671759 -47.921875 205.9375 C-46.43533953 199.6953963 -45.13569921 193.40935053 -43.80151367 187.13330078 C-42.96798024 183.25445575 -42.12049786 179.42053269 -41.02734375 175.60546875 C-39.48357926 170.18761847 -38.33007633 164.68915165 -37.125 159.1875 C-36.85961426 157.98569092 -36.59422852 156.78388184 -36.32080078 155.5456543 C-35.16156413 150.29464268 -34.00907974 145.04216797 -32.859375 139.7890625 C-31.01846974 131.4035076 -29.05960366 123.06332836 -26.9296875 114.74609375 C-26.27147503 112.0938847 -25.64436741 109.44846813 -25.05517578 106.78125 C-24.88003448 105.98939804 -24.70489319 105.19754608 -24.52444458 104.38169861 C-24.0505052 102.22936297 -23.57770894 100.07678124 -23.10546875 97.92407227 C-20.53577082 86.22969348 -17.78981668 74.58108057 -15 62.9375 C-14.35674564 60.24746086 -13.7139006 57.55732423 -13.07118225 54.86715698 C-12.65180794 53.11184185 -12.23224493 51.35657178 -11.81248474 49.60134888 C-10.29405246 43.24731115 -8.7920089 36.88953916 -7.30505371 30.52806091 C-6.38333862 26.59299159 -5.42616657 22.66875523 -4.4375 18.75 C-2.87977855 12.5191142 -1.44419393 6.25817369 0 0 Z " fill="#BB0762" transform="translate(195,75)"/>
<path d="M0 0 C12.21 0 24.42 0 37 0 C33.56502164 16.02989902 33.56502164 16.02989902 31.9140625 23.30859375 C31.53920774 24.96842052 31.16437114 26.6282514 30.78955078 28.28808594 C30.59911194 29.13012573 30.4086731 29.97216553 30.21246338 30.83972168 C27.47008825 42.96657574 24.73743925 55.09435142 22.125 67.25 C20.79789695 73.42294064 19.39276101 79.55505216 17.80859375 85.66796875 C16.62906634 90.52853339 15.60714728 95.42143797 14.5625 100.3125 C12.63760399 109.29606897 10.44783639 118.1436649 8 127 C6.31950401 133.23650735 4.88531321 139.23072965 4.3046875 145.6640625 C3.1930645 154.18650547 0.2418725 162.77980082 -2 171 C25.72 171 53.44 171 82 171 C81.15990245 174.3603902 80.52801169 176.06235413 78.76953125 178.87890625 C78.30329346 179.62591797 77.83705566 180.37292969 77.35668945 181.14257812 C76.84710693 181.94115234 76.33752441 182.73972656 75.8125 183.5625 C75.28293701 184.39587891 74.75337402 185.22925781 74.20776367 186.08789062 C66.17457476 198.56290541 57.309368 210.50719643 47.76953125 221.87109375 C45.95476293 223.88783357 45.95476293 223.88783357 44.95573425 226.10467529 C42.33556706 228.64390965 40.13494546 228.47347447 36.59791565 228.49768066 C35.28161415 228.47610901 35.28161415 228.47610901 33.9387207 228.45410156 C32.54817978 228.45497772 32.54817978 228.45497772 31.12954712 228.45587158 C28.06124604 228.45308183 24.9939129 228.42194747 21.92578125 228.390625 C19.80015087 228.38316579 17.67451361 228.37747135 15.5488739 228.37347412 C9.95092828 228.35819268 4.35339701 228.31888897 -1.24438477 228.2746582 C-6.95518386 228.23375976 -12.66604983 228.2154747 -18.37695312 228.1953125 C-29.58481758 228.15239737 -40.79237435 228.08411549 -52 228 C-51.52740802 225.62111241 -51.05397868 223.24239648 -50.58007812 220.86376953 C-50.38155243 219.86377678 -50.38155243 219.86377678 -50.17901611 218.84358215 C-49.04647531 213.16458102 -47.80325878 207.51684929 -46.5 201.875 C-46.30019531 201.00230469 -46.10039063 200.12960937 -45.89453125 199.23046875 C-45.02836046 195.45131593 -44.15648507 191.673527 -43.27905273 187.89697266 C-41.74424621 181.28020689 -40.25780044 174.65476766 -38.80615234 168.01928711 C-36.70749081 158.44026829 -34.52559015 148.93103637 -31.921875 139.4765625 C-29.41456392 130.02102495 -27.50764525 120.40770298 -25.484375 110.83984375 C-25.21866699 109.58776123 -24.95295898 108.33567871 -24.67919922 107.0456543 C-24.1513581 104.5543532 -23.62683362 102.06234661 -23.10595703 99.56958008 C-22.86216309 98.4173999 -22.61836914 97.26521973 -22.3671875 96.078125 C-22.15175293 95.05106445 -21.93631836 94.02400391 -21.71435547 92.96582031 C-20.97710859 89.90496075 -20.00592468 86.98174779 -19 84 C-18.48244184 81.45827457 -17.99998316 78.92990166 -17.5625 76.375 C-16.55437699 70.60277568 -15.27332577 64.97121766 -13.82739258 59.29296875 C-12.32622123 53.31840423 -10.95408554 47.31335373 -9.5625 41.3125 C-9.09863131 39.3168443 -8.63442569 37.32126718 -8.17018127 35.32569885 C-7.71973308 33.38937179 -7.26953205 31.45298725 -6.81933594 29.51660156 C-5.50039712 23.85569727 -4.16395985 18.19897983 -2.82421875 12.54296875 C-1.85315332 8.36876804 -0.92969115 4.18361016 0 0 Z " fill="#ED0A2F" transform="translate(66,75)"/>
<path d="M0 0 C1.56047445 0.00015913 3.12095416 0.00585397 4.68139648 0.01586914 C5.5012352 0.01728409 6.32107391 0.01869904 7.16575623 0.02015686 C9.79470406 0.0257725 12.42356797 0.0383276 15.05249023 0.05102539 C16.8304838 0.05603838 18.60847869 0.06060163 20.38647461 0.06469727 C24.75434569 0.07574701 29.12215371 0.09302208 33.48999023 0.11352539 C31.53549886 10.19530748 29.54981271 20.23000818 26.9909668 30.17871094 C24.55193302 39.6935576 22.48387873 49.29729952 20.48999023 58.91430664 C20.32241211 59.72085693 20.15483398 60.52740723 19.98217773 61.35839844 C19.67156128 62.86048167 19.36387065 64.36317565 19.06030273 65.86669922 C17.60195321 72.94337227 15.80526308 79.93428952 14.03723145 86.93817139 C8.18238784 110.21192569 2.73559386 133.53999498 -2.11499023 157.04516602 C-2.49066269 158.86487901 -2.86731471 160.68439015 -3.24511719 162.50366211 C-3.57337416 164.08782495 -3.89812913 165.67272032 -4.21826172 167.25854492 C-4.82339961 170.1936858 -5.48261038 173.03325997 -6.45141602 175.87133789 C-8.08143148 180.86363618 -9.08904684 185.98384216 -10.19750977 191.11352539 C-12.43220397 201.32058551 -14.74592671 211.50423551 -17.13500977 221.67602539 C-20.22665824 234.85766739 -23.24442285 248.04680299 -26.01000977 261.30102539 C-27.0910035 266.35156988 -28.2787433 271.36395657 -29.57250977 276.36352539 C-29.89348633 277.60618164 -30.21446289 278.84883789 -30.54516602 280.12915039 C-31.51000977 283.11352539 -31.51000977 283.11352539 -33.51000977 285.11352539 C-33.95731445 284.02555664 -34.40461914 282.93758789 -34.86547852 281.81665039 C-35.47615344 280.3322745 -36.08683069 278.84789957 -36.69750977 277.36352539 C-37.01776123 276.58436768 -37.3380127 275.80520996 -37.66796875 275.00244141 C-39.44805476 270.67593634 -41.24902304 266.35945972 -43.07250977 262.05102539 C-45.3006168 256.72262469 -47.34010337 251.33267253 -49.33691406 245.91430664 C-51.02380541 241.34685956 -52.84203454 236.86168188 -54.84594727 232.42211914 C-56.95202615 225.10039786 -54.4938736 217.8490534 -52.76000977 210.67602539 C-52.50735352 209.6015918 -52.25469727 208.5271582 -51.99438477 207.42016602 C-50.72165869 202.03971655 -49.40097289 196.67342738 -48.03764343 191.31523132 C-45.76976211 182.37726305 -43.81437131 173.39280407 -41.94750977 164.36352539 C-40.18460609 155.85504629 -38.39004138 147.37180339 -36.23583984 138.95141602 C-34.9846754 134.05954399 -33.8136958 129.14827563 -32.63500977 124.23852539 C-32.24756592 122.62494141 -32.24756592 122.62494141 -31.85229492 120.97875977 C-29.93273026 112.95170363 -28.07897937 104.91123708 -26.2644043 96.85986328 C-25.04629029 91.45687491 -23.79463196 86.06354716 -22.51000977 80.67602539 C-20.2373991 71.11375645 -18.18780828 61.50332861 -16.11254883 51.89672852 C-13.97244497 42.01132172 -11.81416503 32.14180058 -9.29907227 22.34399414 C-8.0545725 17.24893818 -6.95763252 12.12059361 -5.86743164 6.99047852 C-4.3842409 0.14180093 -4.3842409 0.14180093 0 0 Z " fill="#9C0683" transform="translate(345.510009765625,74.886474609375)"/>
<path d="M0 0 C12.21 0 24.42 0 37 0 C36.67 0.99 36.34 1.98 36 3 C24.45 2.67 12.9 2.34 1 2 C0.67 2.99 0.34 3.98 0 5 C0 3.35 0 1.7 0 0 Z " fill="#9A2093" transform="translate(342,75)"/>
<path d="M0 0 C2 3 2 3 1.9074707 4.98608398 C1.74851318 5.73188721 1.58955566 6.47769043 1.42578125 7.24609375 C1.25401367 8.07850586 1.08224609 8.91091797 0.90527344 9.76855469 C0.7096582 10.64930664 0.51404297 11.53005859 0.3125 12.4375 C0.12333008 13.33243164 -0.06583984 14.22736328 -0.26074219 15.14941406 C-1.68505289 21.80500423 -3.23615063 28.42565235 -5 35 C-5.66 35 -6.32 35 -7 35 C-5.86839926 26.51299448 -4.39366767 18.22823262 -2 10 C-1.28417503 6.67582651 -0.63190995 3.34105578 0 0 Z " fill="#D7245B" transform="translate(157,237)"/>
<path d="M0 0 C14.85 0 29.7 0 45 0 C44.67 0.99 44.34 1.98 44 3 C43.34 2.67 42.68 2.34 42 2 C40.64247704 1.88295036 39.27974112 1.82322811 37.91748047 1.79467773 C37.07675995 1.77473251 36.23603943 1.75478729 35.36984253 1.73423767 C34.00727829 1.70916893 34.00727829 1.70916893 32.6171875 1.68359375 C31.68778351 1.66281265 30.75837952 1.64203156 29.80081177 1.62062073 C26.8256179 1.55512354 23.85033423 1.49623948 20.875 1.4375 C18.86066772 1.39431494 16.84634459 1.35070066 14.83203125 1.30664062 C9.88811337 1.19944197 4.94410497 1.09817499 0 1 C0 0.67 0 0.34 0 0 Z " fill="#DC0030" transform="translate(103,247)"/>
<path d="M0 0 C0.66 0 1.32 0 2 0 C1.44687265 4.02992782 0.8441938 8.02022924 0 12 C-0.66 12 -1.32 12 -2 12 C-2.33 12.99 -2.66 13.98 -3 15 C-2.5547115 9.72684667 -1.91626837 4.98229776 0 0 Z " fill="#F52F49" transform="translate(52,137)"/>
<path d="M0 0 C0.33 0 0.66 0 1 0 C1.07654536 4.51617599 1.10228696 8.59085217 0 13 C-0.66 13 -1.32 13 -2 13 C-2.33 13.99 -2.66 14.98 -3 16 C-2.52013969 10.43109483 -1.70084819 5.32932432 0 0 Z " fill="#D74178" transform="translate(178,147)"/>
<path d="M0 0 C1.60080151 4.00200378 0.29279692 7.04556236 -1 11 C-1.66 11 -2.32 11 -3 11 C-2.67 8.36 -2.34 5.72 -2 3 C-1.34 3 -0.68 3 0 3 C0 2.01 0 1.02 0 0 Z " fill="#F1304C" transform="translate(66,231)"/>
<path d="M0 0 C0.66 0 1.32 0 2 0 C1.19642857 8.03571429 1.19642857 8.03571429 -1 12 C-1.02698189 10.37509046 -1.04638757 8.75005367 -1.0625 7.125 C-1.07410156 6.22007812 -1.08570313 5.31515625 -1.09765625 4.3828125 C-1 2 -1 2 0 0 Z " fill="#D53369" transform="translate(171,177)"/>
<path d="M0 0 C1.31625194 2.63250388 0.74813658 3.80179056 0.0625 6.625 C-0.13214844 7.44226563 -0.32679687 8.25953125 -0.52734375 9.1015625 C-0.68332031 9.72804687 -0.83929687 10.35453125 -1 11 C-1.66 10.67 -2.32 10.34 -3 10 C-2.25 2.25 -2.25 2.25 0 0 Z " fill="#FA2338" transform="translate(32,229)"/>
<path d="M0 0 C4.62 0 9.24 0 14 0 C13.67 0.99 13.34 1.98 13 3 C12.34 2.67 11.68 2.34 11 2 C9.12943209 1.7724985 7.25314042 1.59037189 5.375 1.4375 C4.37210938 1.35371094 3.36921875 1.26992187 2.3359375 1.18359375 C1.56507813 1.12300781 0.79421875 1.06242188 0 1 C0 0.67 0 0.34 0 0 Z " fill="#D6073F" transform="translate(134,247)"/>
<path d="M0 0 C0.66 0 1.32 0 2 0 C2.33 1.65 2.66 3.3 3 5 C2.34 5 1.68 5 1 5 C1 5.99 1 6.98 1 8 C0.34 8 -0.32 8 -1 8 C-0.67 5.36 -0.34 2.72 0 0 Z " fill="#B72B82" transform="translate(273,168)"/>
</svg>
