<?xml version="1.0" standalone="no"?>
<!DOCTYPE svg PUBLIC "-//W3C//DTD SVG 20010904//EN"
 "http://www.w3.org/TR/2001/REC-SVG-20010904/DTD/svg10.dtd">
<svg version="1.0" xmlns="http://www.w3.org/2000/svg"
 width="400.000000pt" height="400.000000pt" viewBox="0 0 400.000000 400.000000"
 preserveAspectRatio="xMidYMid meet">

<g transform="translate(0.000000,400.000000) scale(0.100000,-0.100000)"
fill="#000000" stroke="none">
<path d="M661 3213 c-6 -21 -15 -60 -21 -88 -6 -27 -19 -86 -30 -130 -10 -44
-71 -307 -135 -585 -64 -278 -127 -550 -140 -605 -13 -55 -39 -172 -59 -260
-20 -88 -40 -178 -46 -200 -24 -98 -80 -346 -80 -355 0 -6 169 -10 468 -10
l468 0 31 33 c81 86 363 489 363 519 0 8 -108 9 -420 4 -392 -7 -420 -6 -420
10 0 13 268 1191 335 1469 8 33 21 92 30 130 8 39 18 78 21 88 5 16 -8 17
-175 17 l-180 0 -10 -37z"/>
<path d="M1956 3242 c-7 -12 -69 -275 -220 -937 -25 -110 -77 -337 -116 -505
-39 -168 -95 -413 -126 -545 -30 -132 -57 -248 -60 -258 -5 -16 30 -17 677
-15 l683 3 87 375 88 375 -110 282 c-60 155 -109 287 -110 295 -2 36 -26 -59
-103 -395 -46 -202 -86 -370 -88 -372 -2 -3 -146 -5 -319 -5 l-314 -1 3 23 c1
13 34 160 73 328 104 450 116 501 152 658 l32 142 481 0 482 0 10 28 c23 59
152 504 152 522 0 12 -1346 14 -1354 2z"/>
<path d="M3420 3245 c0 -5 -95 -419 -110 -480 -6 -22 -84 -364 -175 -760 -91
-396 -181 -790 -201 -876 l-37 -155 65 -165 c36 -90 87 -219 113 -287 26 -68
51 -120 55 -115 4 4 22 73 39 153 18 80 49 213 68 295 19 83 43 188 54 235 10
47 27 121 38 165 10 44 37 161 60 260 22 99 52 227 65 285 13 58 63 274 110
480 48 206 91 393 96 415 5 22 35 148 65 280 31 132 58 248 61 258 5 16 -8 17
-180 17 -102 0 -186 -2 -186 -5z"/>
</g>
</svg>
